<svg xmlns="http://www.w3.org/2000/svg" viewBox="0 0 64 64">
  <!-- Rose — Tier 3: bow + sparkles + glow ring + star crown -->
  <circle cx="32" cy="35" r="22" fill="currentColor" opacity="0.15"/>
  <circle cx="32" cy="35" r="18" fill="currentColor" opacity="0.9"/>
  <ellipse cx="27" cy="30" rx="6" ry="5" fill="white" opacity="0.12"/>
  <circle cx="25" cy="33" r="3" fill="white"/>
  <circle cx="39" cy="33" r="3" fill="white"/>
  <circle cx="26" cy="33" r="1.5" fill="#111"/>
  <circle cx="40" cy="33" r="1.5" fill="#111"/>
  <circle cx="26.5" cy="32.5" r="0.6" fill="white"/>
  <circle cx="40.5" cy="32.5" r="0.6" fill="white"/>
  <ellipse cx="21" cy="38" rx="4.5" ry="2.5" fill="var(--avatar-accent,#cc0174)" opacity="0.55"/>
  <ellipse cx="43" cy="38" rx="4.5" ry="2.5" fill="var(--avatar-accent,#cc0174)" opacity="0.55"/>
  <path d="M26 43 Q32 47 38 43" stroke="white" stroke-width="1.5" fill="none" stroke-linecap="round"/>
  <!-- Bow (larger) -->
  <path d="M32 16 Q20 8 18 15 Q20 22 32 16" fill="var(--avatar-accent,#cc0174)"/>
  <path d="M32 16 Q44 8 46 15 Q44 22 32 16" fill="var(--avatar-accent,#cc0174)"/>
  <circle cx="32" cy="16" r="3.5" fill="white" opacity="0.85"/>
  <!-- Mini crown above bow -->
  <path d="M25 11 L27 7 L32 10 L37 7 L39 11 Z" fill="var(--avatar-accent,#cc0174)" stroke="white" stroke-width="0.5"/>
  <!-- Outer sparkle ring -->
  <path d="M8 18 L9 15 L10 18 L13 19 L10 20 L9 23 L8 20 L5 19 Z" fill="white" opacity="0.7"/>
  <path d="M54 20 L55 17 L56 20 L59 21 L56 22 L55 25 L54 22 L51 21 Z" fill="white" opacity="0.7"/>
  <path d="M10 46 L11 43 L12 46 L15 47 L12 48 L11 51 L10 48 L7 47 Z" fill="var(--avatar-accent,#cc0174)" opacity="0.6"/>
  <path d="M52 46 L53 43 L54 46 L57 47 L54 48 L53 51 L52 48 L49 47 Z" fill="var(--avatar-accent,#cc0174)" opacity="0.6"/>
</svg>