<svg xmlns="http://www.w3.org/2000/svg" viewBox="0 0 64 64">
  <!-- Rose — Tier 1: base face + bow -->
  <circle cx="32" cy="35" r="18" fill="currentColor" opacity="0.9"/>
  <ellipse cx="27" cy="30" rx="6" ry="5" fill="white" opacity="0.1"/>
  <circle cx="25" cy="33" r="3" fill="white"/>
  <circle cx="39" cy="33" r="3" fill="white"/>
  <circle cx="26" cy="33" r="1.5" fill="#111"/>
  <circle cx="40" cy="33" r="1.5" fill="#111"/>
  <circle cx="26.5" cy="32.5" r="0.6" fill="white"/>
  <circle cx="40.5" cy="32.5" r="0.6" fill="white"/>
  <ellipse cx="21" cy="38" rx="4" ry="2" fill="var(--avatar-accent,#cc0174)" opacity="0.45"/>
  <ellipse cx="43" cy="38" rx="4" ry="2" fill="var(--avatar-accent,#cc0174)" opacity="0.45"/>
  <path d="M26 43 Q32 47 38 43" stroke="white" stroke-width="1.5" fill="none" stroke-linecap="round"/>
  <!-- Bow -->
  <path d="M32 15 Q22 9 20 15 Q22 21 32 15" fill="var(--avatar-accent,#cc0174)"/>
  <path d="M32 15 Q42 9 44 15 Q42 21 32 15" fill="var(--avatar-accent,#cc0174)"/>
  <circle cx="32" cy="15" r="3" fill="white" opacity="0.8"/>
</svg>