<svg xmlns="http://www.w3.org/2000/svg" viewBox="0 0 64 64">
  <!-- Nova — Tier 3: star crown + sparkle ring + secondary stars -->
  <circle cx="32" cy="35" r="22" fill="currentColor" opacity="0.15"/>
  <circle cx="32" cy="35" r="18" fill="currentColor" opacity="0.9"/>
  <ellipse cx="27" cy="30" rx="6" ry="5" fill="white" opacity="0.12"/>
  <circle cx="25" cy="33" r="3" fill="white"/>
  <circle cx="39" cy="33" r="3" fill="white"/>
  <circle cx="26" cy="33" r="1.5" fill="#111"/>
  <circle cx="40" cy="33" r="1.5" fill="#111"/>
  <circle cx="26.5" cy="32.5" r="0.6" fill="white"/>
  <circle cx="40.5" cy="32.5" r="0.6" fill="white"/>
  <ellipse cx="21" cy="38" rx="4.5" ry="2.5" fill="var(--avatar-accent,#cc0174)" opacity="0.55"/>
  <ellipse cx="43" cy="38" rx="4.5" ry="2.5" fill="var(--avatar-accent,#cc0174)" opacity="0.55"/>
  <path d="M26 43 Q32 47 38 43" stroke="white" stroke-width="1.5" fill="none" stroke-linecap="round"/>
  <!-- Double star crown -->
  <path d="M32,3 L34.5,9 L41,9.3 L36.2,13.4 L37.9,19.8 L32,16.2 L26.1,19.8 L27.8,13.4 L23,9.3 L29.5,9 Z"
        fill="var(--avatar-accent,#cc0174)" stroke="white" stroke-width="0.6"/>
  <!-- Orbiting mini-stars -->
  <path d="M9 35 L9.8 33 L10.6 35 L12.6 35.8 L10.6 36.6 L9.8 38.6 L9 36.6 L7 35.8 Z" fill="white" opacity="0.75"/>
  <path d="M53 35 L53.8 33 L54.6 35 L56.6 35.8 L54.6 36.6 L53.8 38.6 L53 36.6 L51 35.8 Z" fill="white" opacity="0.75"/>
  <path d="M15 52 L15.6 50.5 L16.2 52 L17.7 52.6 L16.2 53.2 L15.6 54.7 L15 53.2 L13.5 52.6 Z" fill="var(--avatar-accent,#cc0174)" opacity="0.65"/>
  <path d="M48 52 L48.6 50.5 L49.2 52 L50.7 52.6 L49.2 53.2 L48.6 54.7 L48 53.2 L46.5 52.6 Z" fill="var(--avatar-accent,#cc0174)" opacity="0.65"/>
</svg>