<svg xmlns="http://www.w3.org/2000/svg" viewBox="0 0 64 64">
  <!-- Jade — Tier 3: cat ears + whiskers + tiara + star whisker tips -->
  <circle cx="32" cy="35" r="22" fill="currentColor" opacity="0.12"/>
  <path d="M19 28 L14 12 L25 22" fill="currentColor"/>
  <path d="M45 28 L50 12 L39 22" fill="currentColor"/>
  <path d="M19 28 L15 14 L24 23" fill="var(--avatar-accent,#cc0174)" opacity="0.65"/>
  <path d="M45 28 L49 14 L40 23" fill="var(--avatar-accent,#cc0174)" opacity="0.65"/>
  <circle cx="32" cy="35" r="18" fill="currentColor" opacity="0.9"/>
  <ellipse cx="27" cy="30" rx="6" ry="5" fill="white" opacity="0.12"/>
  <ellipse cx="25" cy="33" rx="3.5" ry="2.5" fill="white"/>
  <ellipse cx="39" cy="33" rx="3.5" ry="2.5" fill="white"/>
  <ellipse cx="26" cy="33" rx="1.5" ry="2" fill="#111"/>
  <ellipse cx="40" cy="33" rx="1.5" ry="2" fill="#111"/>
  <circle cx="26.5" cy="32.5" r="0.6" fill="white"/>
  <circle cx="40.5" cy="32.5" r="0.6" fill="white"/>
  <ellipse cx="21" cy="38" rx="4.5" ry="2.5" fill="var(--avatar-accent,#cc0174)" opacity="0.5"/>
  <ellipse cx="43" cy="38" rx="4.5" ry="2.5" fill="var(--avatar-accent,#cc0174)" opacity="0.5"/>
  <path d="M32 40 L30 42 M32 40 L34 42" stroke="white" stroke-width="1" fill="none" stroke-linecap="round"/>
  <circle cx="32" cy="39.5" r="1.2" fill="var(--avatar-accent,#cc0174)" opacity="0.7"/>
  <!-- Whiskers with star tips -->
  <line x1="14" y1="37" x2="26" y2="39" stroke="white" stroke-width="1" opacity="0.7"/>
  <line x1="13" y1="40" x2="25" y2="40" stroke="white" stroke-width="1" opacity="0.6"/>
  <line x1="50" y1="37" x2="38" y2="39" stroke="white" stroke-width="1" opacity="0.7"/>
  <line x1="51" y1="40" x2="39" y2="40" stroke="white" stroke-width="1" opacity="0.6"/>
  <circle cx="13" cy="37" r="1.5" fill="var(--avatar-accent,#cc0174)"/>
  <circle cx="12" cy="40" r="1.5" fill="var(--avatar-accent,#cc0174)"/>
  <circle cx="51" cy="37" r="1.5" fill="var(--avatar-accent,#cc0174)"/>
  <circle cx="52" cy="40" r="1.5" fill="var(--avatar-accent,#cc0174)"/>
  <!-- Gem tiara -->
  <path d="M24 20 L28 17 L32 20 L36 17 L40 20" stroke="var(--avatar-accent,#cc0174)" stroke-width="1.5" fill="none" stroke-linecap="round" stroke-linejoin="round"/>
  <circle cx="32" cy="20" r="2.5" fill="white" stroke="var(--avatar-accent,#cc0174)" stroke-width="0.8"/>
</svg>