<svg xmlns="http://www.w3.org/2000/svg" viewBox="0 0 64 64">
  <!-- Luna — Tier 3: crescent + star ring + full glow -->
  <circle cx="32" cy="35" r="22" fill="currentColor" opacity="0.13"/>
  <circle cx="32" cy="35" r="18" fill="currentColor" opacity="0.9"/>
  <ellipse cx="27" cy="30" rx="6" ry="5" fill="white" opacity="0.12"/>
  <circle cx="25" cy="33" r="3" fill="white"/>
  <circle cx="39" cy="33" r="3" fill="white"/>
  <circle cx="26" cy="33" r="1.5" fill="#111"/>
  <circle cx="40" cy="33" r="1.5" fill="#111"/>
  <circle cx="26.5" cy="32.5" r="0.6" fill="white"/>
  <circle cx="40.5" cy="32.5" r="0.6" fill="white"/>
  <ellipse cx="21" cy="38" rx="4.5" ry="2.5" fill="var(--avatar-accent,#cc0174)" opacity="0.5"/>
  <ellipse cx="43" cy="38" rx="4.5" ry="2.5" fill="var(--avatar-accent,#cc0174)" opacity="0.5"/>
  <path d="M26 43 Q32 47 38 43" stroke="white" stroke-width="1.5" fill="none" stroke-linecap="round"/>
  <!-- Crescent moon (larger) -->
  <path d="M39 4 A11 11 0 1 0 39 24 A7 7 0 1 1 39 4 Z" fill="var(--avatar-accent,#cc0174)"/>
  <!-- Ring of mini-stars -->
  <circle cx="8"  cy="20" r="1.8" fill="white" opacity="0.75"/>
  <circle cx="8"  cy="48" r="1.5" fill="white" opacity="0.6"/>
  <circle cx="56" cy="20" r="1.8" fill="white" opacity="0.75"/>
  <circle cx="56" cy="48" r="1.5" fill="white" opacity="0.6"/>
  <circle cx="32" cy="62" r="1.5" fill="var(--avatar-accent,#cc0174)" opacity="0.5"/>
  <path d="M18 57 L18.6 55.5 L19.2 57 L20.7 57.6 L19.2 58.2 L18.6 59.7 L18 58.2 L16.5 57.6 Z" fill="var(--avatar-accent,#cc0174)" opacity="0.65"/>
  <path d="M44 57 L44.6 55.5 L45.2 57 L46.7 57.6 L45.2 58.2 L44.6 59.7 L44 58.2 L42.5 57.6 Z" fill="var(--avatar-accent,#cc0174)" opacity="0.65"/>
</svg>