<svg xmlns="http://www.w3.org/2000/svg" viewBox="0 0 64 64">
  <!-- Iris — Tier 3: full bloom + glow ring + center gem -->
  <circle cx="32" cy="32" r="30" fill="currentColor" opacity="0.08"/>
  <!-- 8 large petals -->
  <ellipse cx="32" cy="16" rx="4.5" ry="9" fill="var(--avatar-accent,#cc0174)" opacity="0.5"/>
  <ellipse cx="32" cy="16" rx="4.5" ry="9" fill="var(--avatar-accent,#cc0174)" opacity="0.5" transform="rotate(45 32 32)"/>
  <ellipse cx="32" cy="16" rx="4.5" ry="9" fill="var(--avatar-accent,#cc0174)" opacity="0.5" transform="rotate(90 32 32)"/>
  <ellipse cx="32" cy="16" rx="4.5" ry="9" fill="var(--avatar-accent,#cc0174)" opacity="0.5" transform="rotate(135 32 32)"/>
  <!-- 4 secondary petals -->
  <ellipse cx="32" cy="19" rx="3" ry="6" fill="currentColor" opacity="0.4" transform="rotate(22.5 32 32)"/>
  <ellipse cx="32" cy="19" rx="3" ry="6" fill="currentColor" opacity="0.4" transform="rotate(67.5 32 32)"/>
  <ellipse cx="32" cy="19" rx="3" ry="6" fill="currentColor" opacity="0.4" transform="rotate(112.5 32 32)"/>
  <ellipse cx="32" cy="19" rx="3" ry="6" fill="currentColor" opacity="0.4" transform="rotate(157.5 32 32)"/>
  <circle cx="32" cy="35" r="18" fill="currentColor" opacity="0.9"/>
  <ellipse cx="27" cy="30" rx="6" ry="5" fill="white" opacity="0.12"/>
  <circle cx="25" cy="33" r="3" fill="white"/>
  <circle cx="39" cy="33" r="3" fill="white"/>
  <circle cx="26" cy="33" r="1.5" fill="#111"/>
  <circle cx="40" cy="33" r="1.5" fill="#111"/>
  <circle cx="26.5" cy="32.5" r="0.6" fill="white"/>
  <circle cx="40.5" cy="32.5" r="0.6" fill="white"/>
  <ellipse cx="21" cy="38" rx="4.5" ry="2.5" fill="var(--avatar-accent,#cc0174)" opacity="0.5"/>
  <ellipse cx="43" cy="38" rx="4.5" ry="2.5" fill="var(--avatar-accent,#cc0174)" opacity="0.5"/>
  <path d="M26 43 Q32 47 38 43" stroke="white" stroke-width="1.5" fill="none" stroke-linecap="round"/>
  <!-- Center gem on forehead -->
  <path d="M32 27 L34.5 30 L32 33 L29.5 30 Z" fill="white" stroke="var(--avatar-accent,#cc0174)" stroke-width="0.7"/>
</svg>